<svg style="width: 14px;"
   version="1.1"
   viewBox="0 0 2009 658"
   id="svg57"
   sodipodi:docname="DGDV.svg"
   inkscape:version="1.4 (e7c3feb100, 2024-10-09)"
   xmlns:inkscape="http://www.inkscape.org/namespaces/inkscape"
   xmlns:sodipodi="http://sodipodi.sourceforge.net/DTD/sodipodi-0.dtd"
   xmlns="http://www.w3.org/2000/svg"
   xmlns:svg="http://www.w3.org/2000/svg">
  <defs
     id="defs57" />
  <sodipodi:namedview
     id="namedview57"
     pagecolor="#ffffff"
     bordercolor="#000000"
     borderopacity="0.25"
     inkscape:showpageshadow="2"
     inkscape:pageopacity="0.0"
     inkscape:pagecheckerboard="0"
     inkscape:deskcolor="#d1d1d1"
     showgrid="false"
     inkscape:zoom="2.02"
     inkscape:cx="803.21782"
     inkscape:cy="174.75248"
     inkscape:window-width="1366"
     inkscape:window-height="761"
     inkscape:window-x="0"
     inkscape:window-y="0"
     inkscape:window-maximized="1"
     inkscape:current-layer="svg57" />
  <path
     d="m 12,336 h 113 l 37,1 21,2 24,5 19,7 21,11 10,8 6,5 8,10 10,16 8,16 7,24 4,26 1,10 v 44 l -4,30 -6,23 -5,13 -6,11 -10,14 -12,13 -12,9 -16,8 -15,6 -19,5 -19,3 -33,2 H 2 0 V 541 376 336 Z m 56,45 v 233 l 78,-1 19,-2 14,-4 16,-8 12,-9 8,-9 8,-13 6,-15 5,-21 2,-15 1,-23 -3,-29 -4,-17 -7,-19 -8,-14 -9,-10 -10,-8 -12,-7 -14,-5 -16,-3 -15,-1 z"
     id="path1"
     sodipodi:nodetypes="cccccccccccccccccccccccccccccccccccccccccccccccccccccccccc" />
  <path
     d="M 43.053457,0 H 143.05346 l 27,1 24,3 19,5 20,8 14,8 13,11 11,12 10,15 8,17 7,23 4,25 1,9 v 50 l -4,27 -4,17 -6,16 -9,17 -8,11 -9,10 -9,8 -15,9 -21,9 -23,6 -20,3 -20,1 L 11.053457,320.9519 0,321.0481 V 306 L 0.05345688,254 0,0 v 0 z m 25,45 v 231 h 81.000003 l 16,-2 17,-5 16,-9 11,-9 8,-9 8,-16 7,-21 3,-15 2,-23 -1,-22 -3,-23 -6,-21 -8,-17 -8,-11 -9,-9 -14,-9 -15,-6 -12,-3 -10,-1 z"
     id="path2"
     sodipodi:nodetypes="ccccccccccccccccccccccccccccccccccccccccccccccccccccccccc" />
  <path
     id="path59"
     d="m 469,0 -33,2 -19,3 -24,8 -16,8 -13,9 -14,14 -10,13 -8,15 -7,18 -5,19 -4,28 v 52 l 1,8 3,18 5,18 8,20 10,17 8,10 10,9 11,8 16,9 16,6 19,5 22,3 170,1 1,-1 V 140 l -1,-1 H 442 l -1,5 4,11 6,10 7,7 8,5 9,4 h 72 l 2,-1 v 99 l -20,-1 -64,-1 -16,-3 -14,-5 -14,-8 -9,-8 -11,-12 -7,-13 -6,-16 -4,-17 -3,-24 v -18 l 1,-12 3,-19 6,-20 11,-21 9,-12 9,-8 12,-7 14,-5 19,-3 105,-1 12,-1 11,-4 6,-4 9,-10 6,-11 4,-13 -2,-2 z" />
  <path
     d="m 381,336 h 21 l 1,4 v 273 l 87,-1 13,-2 14,-5 12,-7 10,-10 7,-12 4,-14 1,-10 1,-181 4,-10 9,-12 9,-8 7,-4 11,-1 h 22 l 2,1 v 225 l -2,13 -5,16 -9,17 -11,14 -11,11 -14,10 -14,7 -16,5 -13,2 -17,1 H 340 l -2,-6 V 374 l 2,-9 8,-13 8,-8 12,-6 z"
     id="path4" />
  <path
     d="m 659,311 h 54 l 9,2 8,6 6,7 4,8 1,5 v 32 l -3,9 -8,11 -6,5 -11,3 -9,1 h -45 l -1,-1 -1,-17 v -24 l 1,-46 z m 25,12 -6,1 1,59 2,3 h 21 l 9,-3 6,-5 4,-8 2,-11 v -11 l -3,-12 -6,-8 -8,-4 -8,-1 z"
     id="path12" />
  <path
     d="m 659,195 h 51 l 11,2 10,6 6,8 4,9 2,13 v 17 l -3,13 -7,10 -8,7 -9,3 -7,1 -37,1 -13,-1 -1,-2 v -86 z m 27,12 -7,1 v 61 l 1,2 h 21 l 10,-3 9,-8 3,-8 1,-6 v -16 l -4,-11 -7,-8 -8,-3 -8,-1 z"
     id="path13" />
  <path
     d="m 784,195 h 60 l 8,3 7,8 3,8 v 12 l -3,8 -4,6 -10,5 1,5 13,22 7,10 v 2 h -14 l -9,-3 -5,-5 -10,-15 -7,-11 -5,-3 -11,-1 -1,2 -1,35 -1,1 -15,-1 -3,-5 -1,-15 v -67 z m 21,12 -2,1 -1,13 v 14 l 10,-1 22,-2 7,-3 2,-2 1,-7 -3,-9 -6,-4 z"
     id="path14" />
  <path
     d="m 1759,195 h 59 l 9,3 6,8 3,7 v 14 l -3,9 -8,7 -5,2 h -3 l 6,10 14,23 2,3 v 3 l -7,1 -14,-3 -7,-7 -12,-19 -4,-6 -5,-3 -13,-1 v 37 l -1,1 h -13 l -4,-4 -1,-7 v -74 z m 20,12 -2,2 -1,25 17,-1 18,-2 4,-2 3,-8 -2,-9 -4,-4 -3,-1 z"
     id="path15" />
  <path
     d="m 881,311 h 54 l 9,2 9,6 7,8 4,10 1,4 1,15 -2,16 -5,12 -7,8 -9,5 -9,2 -10,1 h -42 l -1,-1 z m 26,12 -7,2 -1,5 v 16 l 1,39 1,1 h 24 l 9,-3 6,-5 4,-8 2,-10 v -11 l -2,-10 -4,-8 -8,-6 -8,-2 z"
     id="path16" />
  <path
     d="m 1276,427 h 51 l 8,3 7,6 7,11 1,4 1,13 v 49 l -3,3 h -60 l -8,-3 -5,-4 -6,-10 -2,-5 v -12 l 4,-10 8,-8 7,-2 22,-1 h 22 l -2,-9 -4,-8 -8,-4 -5,-1 -15,-1 h -19 l -3,-3 v -6 z m 53,45 -31,2 -8,2 -3,2 -1,3 v 9 l 3,9 6,3 h 35 l 2,-2 v -28 z"
     id="path17" />
  <path
     d="m 1859,195 h 45 l 8,2 9,6 6,8 3,7 1,6 1,23 v 33 l -3,3 -4,1 -29,1 h -14 l -14,-1 -8,-3 -8,-9 -4,-11 v -9 l 3,-10 7,-8 4,-2 6,-1 h 43 l -3,-13 -3,-6 -6,-3 -5,-1 h -38 l -1,-9 z m 45,46 -26,1 -8,3 -3,6 1,11 4,6 5,3 11,1 h 11 l 10,-1 3,-5 v -24 l -1,-1 z"
     id="path19" />
  <path
     d="m 1426,195 h 53 l -1,9 -1,2 -4,1 -29,1 -14,2 -7,3 -6,8 -3,11 v 14 l 4,13 6,7 11,4 h 17 l 5,-1 1,-9 v -14 h -16 l -9,-2 -3,-4 1,-6 46,-1 2,1 1,17 v 21 l -1,10 -2,2 -22,1 h -13 l -21,-2 -12,-5 -8,-9 -5,-12 -2,-9 v -19 l 5,-16 6,-8 7,-6 8,-3 z"
     id="path21" />
  <path
     d="m 659,426 19,1 1,1 1,24 2,9 4,4 5,1 26,2 4,1 v -42 l 16,-1 3,1 v 56 l -2,10 -6,10 -5,6 -9,4 -10,2 -12,1 h -19 l -10,-1 -4,-4 -2,-5 1,-5 h 40 l 7,-2 7,-6 4,-8 1,-5 h -34 l -12,-2 -7,-4 -7,-10 -2,-7 -1,-10 v -20 z"
     id="path24" />
  <path
     d="m 1102,427 h 9 l 8,2 2,1 1,52 2,13 1,4 9,2 h 26 l 1,-17 1,-57 h 9 l 8,2 1,1 1,21 v 63 l -4,2 h -48 l -9,-2 -8,-5 -6,-9 -3,-8 -1,-7 z"
     id="path25" />
  <path
     d="m 813,427 h 11 l 1,76 24,-1 9,-3 3,-5 1,-6 1,-44 1,-14 4,-2 6,-1 h 9 v 56 l -2,15 -6,9 -8,6 -7,2 -10,1 h -43 l -1,-1 -1,-11 v -61 l 1,-13 2,-2 z"
     id="path26" />
  <path
     d="m 1267,194 h 23 l 25,1 8,3 8,7 5,8 2,10 v 61 l -1,1 -10,-1 -6,-3 -2,-4 -1,-55 -3,-9 -4,-3 -12,-2 h -20 l -1,75 -1,1 -11,-1 -6,-3 -1,-7 v -78 z"
     id="path27" />
  <path
     d="m 929,426 h 32 l 24,1 8,3 7,7 5,10 1,6 1,61 -1,2 h -9 l -8,-2 -2,-8 -1,-54 -3,-7 -6,-4 -6,-1 h -24 v 75 h -16 l -3,-7 -1,-43 v -23 l 1,-15 z"
     id="path28" />
  <path
     d="m 1588,426 h 15 l 32,1 8,3 8,7 4,7 1,4 1,46 v 22 l -4,1 -9,-2 -5,-3 -2,-10 -1,-53 -2,-6 -7,-2 -29,-2 v 76 l -3,2 -10,-2 -5,-5 -1,-11 v -72 z"
     id="path29" />
  <path
     d="m 1100,311 h 11 l 1,59 3,9 4,4 9,2 h 22 l 1,-8 1,-64 9,-2 h 9 l 1,2 v 86 l -1,1 h -48 l -12,-2 -8,-5 -6,-8 -2,-6 -1,-10 v -42 l 2,-15 z"
     id="path30" />
  <path
     d="m 1584,194 h 17 l 32,1 9,2 9,7 5,7 2,12 1,59 -2,2 h -8 l -7,-3 -2,-3 -1,-5 -1,-17 -1,-38 -3,-6 -6,-3 -7,-1 h -20 l -1,1 v 72 l -1,3 h -13 l -4,-4 -1,-5 v -79 z"
     id="path31" />
  <path
     d="m 1398,310 h 21 l 35,1 8,3 7,6 6,10 1,4 v 66 h -7 l -10,-3 -2,-2 -1,-59 -4,-8 -7,-3 -8,-1 h -20 v 75 l -3,1 -12,-2 -4,-5 z"
     id="path32" />
  <path
     d="m 899,195 h 50 l 1,3 -3,7 -2,1 -9,1 -25,1 -9,3 -5,4 -6,10 -1,6 6,-1 22,-1 h 24 l 1,4 -1,8 -6,2 -18,1 h -29 l 6,16 6,7 6,3 h 40 l 2,3 v 7 l -4,3 -3,1 h -40 l -12,-3 -7,-5 -7,-10 -4,-10 -1,-5 v -19 l 3,-15 4,-8 8,-9 8,-4 z"
     id="path33" />
  <path
     d="m 1559,194 h 8 l 2,1 -2,9 -2,2 -31,2 -10,2 -6,4 -6,9 -3,8 5,-1 19,-1 h 29 v 10 l -3,3 -3,1 -25,1 h -21 l 3,13 6,9 8,4 22,1 19,-1 1,5 -3,6 -7,3 h -35 l -14,-3 -8,-6 -6,-8 -4,-10 -1,-7 v -24 l 4,-13 6,-8 8,-7 6,-2 9,-1 z"
     id="path34" />
  <path
     d="m 1738,194 h 7 l 1,1 v 7 l -2,4 -32,2 -9,2 -6,3 -7,9 -3,9 7,-1 17,-1 h 30 v 11 l -5,3 -48,1 4,13 6,9 7,4 20,1 h 21 v 10 l -2,2 -6,1 h -39 l -9,-2 -9,-6 -7,-10 -4,-13 v -28 l 4,-13 6,-8 7,-6 7,-2 11,-1 z"
     id="path35" />
  <path
     d="m 1196,311 h 56 l -1,7 -2,4 -4,1 -34,1 -10,1 v 13 l 1,6 25,1 13,2 9,5 6,7 3,10 v 8 l -4,10 -6,8 -8,4 -8,1 h -50 l -1,-1 1,-9 2,-3 46,-2 6,-4 2,-11 -3,-7 -4,-3 -4,-1 -29,-1 -9,-3 -5,-6 -3,-8 v -15 l 6,-9 5,-5 z"
     id="path37" />
  <path
     d="m 788,311 h 41 l -1,7 -3,4 -6,1 -25,1 -10,2 -5,3 -6,9 -3,9 4,-1 17,-1 h 30 l 2,4 v 6 l -2,2 -5,1 -45,1 2,10 5,10 6,5 6,2 h 36 l 2,1 v 7 l -2,4 -4,2 -22,1 -16,-1 -12,-3 -8,-6 -7,-9 -4,-10 -2,-14 1,-15 4,-14 6,-8 8,-7 5,-2 z"
     id="path38" />
  <path
     d="m 1414,426 h 16 l 13,1 -2,9 -5,3 -26,1 -11,2 -8,4 -6,12 -1,4 v 18 l 4,11 7,8 8,3 10,1 h 11 l 18,-1 -1,8 -5,5 -4,1 h -31 l -16,-3 -9,-6 -8,-11 -3,-9 -1,-5 v -23 l 3,-11 4,-8 5,-6 8,-5 9,-2 z"
     id="path39" />
  <path
     d="m 984,195 h 49 l 1,3 -3,6 -4,3 -27,1 -14,3 -6,5 -5,12 -1,6 v 12 l 3,10 5,9 7,4 6,1 h 36 l 2,1 v 6 l -3,5 -7,2 h -36 l -10,-2 -8,-4 -7,-8 -5,-10 -2,-8 -1,-15 2,-14 5,-12 6,-8 8,-6 z"
     id="path40" />
  <path
     d="m 1079,310 6,1 -1,8 -3,4 -29,1 -12,2 -7,6 -5,7 -3,8 2,-1 18,-1 h 33 l 1,1 v 9 l -1,2 -6,1 -45,1 v 40 h -15 l -3,-2 -1,-4 -1,-13 v -22 l 1,-15 3,-12 6,-9 7,-7 7,-3 9,-1 z"
     id="path41" />
  <path
     d="m 1075,195 h 46 l 1,4 -3,7 -3,1 -27,1 -14,3 -6,5 -4,8 -1,4 v 21 l 4,12 5,6 7,3 h 41 l -1,9 -4,4 -3,1 h -37 l -14,-3 -8,-7 -6,-9 -3,-9 -1,-5 v -23 l 3,-12 6,-10 8,-7 7,-3 z"
     id="path42" />
  <path
     d="m 1085,426 6,1 -1,10 -4,2 -30,1 -12,3 -5,5 -4,9 -1,4 v 18 l 4,13 6,7 8,3 23,1 17,-1 -1,7 -4,5 -7,2 h -30 l -16,-3 -9,-7 -6,-8 -4,-10 -1,-8 v -17 l 2,-12 4,-9 7,-8 5,-4 6,-2 8,-1 z"
     id="path43" />
  <path
     d="m 1943,195 12,1 6,3 2,3 1,55 3,9 5,3 3,1 33,1 1,5 -4,6 -7,2 h -33 l -8,-3 -8,-8 -5,-10 -1,-5 -1,-61 z"
     id="path45" />
  <path
     d="m 1192,427 16,1 3,2 1,55 3,11 5,4 4,1 h 27 l 7,-1 1,5 -3,7 -4,3 -5,1 h -30 l -10,-3 -6,-5 -6,-9 -2,-7 -1,-10 z"
     id="path46" />
  <path
     d="m 1452,426 14,2 5,3 1,3 v 44 l 1,35 -2,3 h -12 l -5,-5 -3,-9 v -75 z"
     id="path47" />
  <path
     d="m 975,311 h 11 l 8,2 1,6 1,80 -1,1 -11,-1 -6,-3 -2,-2 -1,-6 z"
     id="path48" />
  <path
     d="m 896,427 17,1 1,3 1,16 v 68 l -1,1 h -8 l -7,-3 -3,-3 -1,-4 v -78 z"
     id="path49" />
  <path
     d="m 752,195 17,1 1,1 1,17 v 68 l -2,2 -10,-1 -5,-2 -2,-9 -1,-13 v -63 z"
     id="path50" />
  <path
     d="m 1268,311 h 12 l 6,3 1,5 v 77 l -2,4 h -7 l -8,-4 -2,-6 -1,-78 z"
     id="path51" />
  <path
     d="m 1135,194 8,1 7,3 2,2 1,4 v 79 l -4,2 -9,-2 -5,-5 -1,-7 v -76 z"
     id="path52" />
  <path
     class="st4"
     d="m 1224.355,185.57443 -22.7108,4.55807 v -5.59821 c 0,-3.39205 2.438,-6.30046 5.7505,-6.9696 L 1230.0791,173 v 5.5717 c 0.01,3.39867 -2.3917,6.33359 -5.7241,7.00273 z M 1248,238.31681 c 0,29.32928 -11.7331,44.71937 -42.4934,44.71937 -30.7736,0 -42.5066,-15.39009 -42.5066,-44.71937 0,-28.56079 11.733,-44.70615 42.5066,-44.70615 30.7603,0.007 42.4934,16.14536 42.4934,44.70615 z m -16.8543,0 c 0,-16.841 -5.8566,-32.9731 -25.6391,-32.9731 -19.7957,0 -25.6523,16.1321 -25.6523,32.9731 0,17.60947 5.8566,33.72171 25.6523,33.72171 19.7825,0.007 25.6391,-16.11224 25.6391,-33.72171 z"
     id="path39-3"
     style="stroke-width:0.662509" />
  <path
     class="st4"
     d="m 1361.355,300.57443 -22.7108,4.55807 v -5.59821 c 0,-3.39205 2.438,-6.30046 5.7505,-6.9696 L 1367.0791,288 v 5.5717 c 0.01,3.39867 -2.3917,6.33359 -5.7241,7.00273 z M 1385,353.31681 c 0,29.32928 -11.7331,44.71937 -42.4934,44.71937 -30.7736,0 -42.5066,-15.39009 -42.5066,-44.71937 0,-28.56079 11.733,-44.70615 42.5066,-44.70615 30.7603,0.007 42.4934,16.14536 42.4934,44.70615 z m -16.8543,0 c 0,-16.841 -5.8566,-32.9731 -25.6391,-32.9731 -19.7957,0 -25.6523,16.1321 -25.6523,32.9731 0,17.60947 5.8566,33.72171 25.6523,33.72171 19.7825,0.007 25.6391,-16.11224 25.6391,-33.72171 z"
     id="path39-3-6"
     style="stroke-width:0.662509" />
  <path
     class="st4"
     d="m 1544.3551,417.57443 -22.7108,4.55807 v -5.59821 c 0,-3.39205 2.438,-6.30046 5.7505,-6.9696 L 1550.0792,405 v 5.5717 c 0.01,3.39867 -2.3917,6.33359 -5.7241,7.00273 z m 23.645,52.74238 c 0,29.32928 -11.7331,44.71937 -42.4934,44.71937 -30.7736,0 -42.5066,-15.39009 -42.5066,-44.71937 0,-28.56079 11.733,-44.70615 42.5066,-44.70615 30.7603,0.007 42.4934,16.14536 42.4934,44.70615 z m -16.8543,0 c 0,-16.841 -5.8566,-32.9731 -25.6391,-32.9731 -19.7957,0 -25.6523,16.1321 -25.6523,32.9731 0,17.60947 5.8566,33.72171 25.6523,33.72171 19.7825,0.007 25.6391,-16.11224 25.6391,-33.72171 z"
     id="path39-3-6-7"
     style="stroke-width:0.662509" />
</svg>
