<?xml version="1.0" encoding="UTF-8" standalone="no"?>
<svg
   version="1.1"
   viewBox="0 0 960.00006 1142.9999"
   width="960.00006"
   height="1142.9999"
   id="svg3"
   sodipodi:docname="Gallo.svg"
   inkscape:version="1.4 (e7c3feb100, 2024-10-09)"
   xmlns:inkscape="http://www.inkscape.org/namespaces/inkscape"
   xmlns:sodipodi="http://sodipodi.sourceforge.net/DTD/sodipodi-0.dtd"
   xmlns="http://www.w3.org/2000/svg"
   xmlns:svg="http://www.w3.org/2000/svg">
  <defs
     id="defs3" />
  <sodipodi:namedview
     id="namedview3"
     pagecolor="#ffffff"
     bordercolor="#000000"
     borderopacity="0.25"
     inkscape:showpageshadow="2"
     inkscape:pageopacity="0.0"
     inkscape:pagecheckerboard="0"
     inkscape:deskcolor="#d1d1d1"
     inkscape:zoom="0.34375"
     inkscape:cx="487.27273"
     inkscape:cy="640"
     inkscape:window-width="1366"
     inkscape:window-height="761"
     inkscape:window-x="0"
     inkscape:window-y="0"
     inkscape:window-maximized="1"
     inkscape:current-layer="svg3" />
  <path
     d="m 762.00002,0 -9,7 L 737,19 l -17,11.000001 -21,11 L 679,50 646,61 620,67 556,59 520,56 h -66 l -20,2 -32,5 -30,7 -27,9.000001 -21,9 L 302,100 l -18,13 -10,9 -14,15 -10,14 -8,15 -6,16 -4,16.00001 -2,17 v 17 l 1,11 1,2 h -2 l -12,5 -22,12 -15,9 -15,11 -14,11 -17,17 -11,13 -12,16 -8,14 -7.999998,16 -7.000002,20 -10,8 -8,7 -11,11 -12,14 -9,11 -13,19 -8,15 -9.0000002,21 -5.9999998,21 -3,21 v 21 l 2,16 4.9999998,21 L 16,618.00002 l 10,18 h 2 l 1,-2 10,-17 12,-16.00001 18,-18 14,-11 12.000002,-8 15.999998,-9 24,-10 9,-1 12,2 20,6 17,8 13,8 14,11 10,11 8,10 7,11 8,16.00001 5,15 4,20 v 32 l -2,12 -5,18 -10,21 -9,14 -10,11 -5,5 -10,9 -13,9 -11,6 v 2 l 9,15 11,17 15,20 8,10 10,11 12,13 15,14 8,7 10,9 14,11 6,4 10,-16 9,-19 6,-16 7,-22 6,-28 4,-29 2,-33 v -27 l -2,-36 -3,-28 -6,-38 -7,-34.00001 -8,-30 -4,-4 -16,-9 -16,-8 -20,-8 -24,-7 -23,-4 -29,-3 13,-1 h 34 l 31,3 24,4 30,7 30,9 10,29 10,35.00001 9,39 7,40 5,44 2,34 v 41 l -1,20 -3,31 -5,32 -7,32 -9,31 -11,30 -12,26.99998 -9,17 -10,17 -11,18 -14,18.9999 -12,16 -12,13 v 4 l 24,6 36,7 32,4 30,2 h 38 l 31,-2 32,-4 27,-5 36,-9 36,-12 23,-9 8,-4 V 1076 l -2,-32 -4,-43 -6,-45.99998 -8,-47 -10,-45 -10,-37 -14,-43 -11,-28 -11,-25 -14,-27 -11,-19 -9,-14 -13,-19 -11,-13 -9,-11 -14,-14.00001 12,7.00001 17,11 17,12 16,12 13,10 13,11 14,12 8,7 32,32 18,20 12,14 13,16 14,19 18,27 16,27 12,24 12,27 10.00002,28 7,24 6,27 5,33.99998 4,-2 24,-23.99998 11,-12 12,-14 11,-14 9,-12 11,-16 13.00004,-21 13,-25 -1,-7 -9,-36 -8.00004,-24 -11,-28 -10,-21 -12,-22 -9,-15 -11,-17 -12,-16 -11,-14 9,6 18,14 11,9 8,7 18,18 15,16 9.00004,11 10,12 13,18 9,14 3,1 3,-10 6,-26 5,-29 3,-30 v -58 l -2,-23 -3,-20.00001 -2,-2 -7,-8 -10,-10 -9,-10 -4,-2 v -2 l -2,-1 -12,-12 -20.00004,-18 -13,-11 -16,-13 -16,-12 -17,-12 -21,-14 -23.00002,-14 -28,-15 -33,-16 -28,-12 -35,-13 -35,-11 13,-2 25,-2 h 40 l 16,1 28,3 36,6 30.00002,7 29,8 38,13 9,3 v -2 l -6,-9 -13,-18 -10,-13 -8,-9 -9,-11 -22,-22 -15,-14 -13,-11 -11.00002,-9 -16,-12 -23,-16 -27,-16 -24,-12 -26,-12 -32,-12 -33,-10 -31,-7 -29,-5 -38,-4 -24,-1 h -16 l -22,1 -27,2 24,-7 32,-7 32,-5 32,-3 28,-1 37,1 14,1 33,4 32,6 24,6 27,8 25,9 31.00002,13 35,18 16,8 6,1 5,-2 22,-12 19,-12 16.00004,-11 12,-10 11,-9 7,-7 14,-15 9,-11.00001 10,-13 13,-21 10,-21 8,-23 5,-19.999999 3,-22.000001 V 41.000001 h -2 l -13,8.999999 -25,13 -22,9 -21,6.000001 -25.00004,5 -26,3 -23,1 -45,-1 1,-2 4,-18.000001 3,-25.999999 V 20 l -2,-18 z M 438,308.00001 h 37 l 32,2 34,4 29,5 36,8 35,10 v 1 h -10 l -45,-3 h -81 l -42,3 -35,4 -35,6 -30,7 -2,1 -3,12 -7,11 -10,9 -15,8 -13,4 -10,2 h -22 l -16,-4 -12,-6 -6,-5 -7,-11 -1,-6 -42,6 3,-3 34,-17 36,-15 40,-13 32,-8 26,-5 28,-4 23,-2 z"
     id="path4" />
</svg>
