<?xml version="1.0" encoding="UTF-8" standalone="no"?>
<svg
   version="1.1"
   id="Capa_1"
   x="0px"
   y="0px"
   viewBox="0 0 561 561"
   xml:space="preserve"
   sodipodi:docname="logoRadioUAAv2.svg"
   width="561"
   height="561"
   inkscape:version="1.4 (e7c3feb100, 2024-10-09)"
   inkscape:export-filename="logoRadioUAA.png"
   inkscape:export-xdpi="10.951872"
   inkscape:export-ydpi="10.951872"
   xmlns:inkscape="http://www.inkscape.org/namespaces/inkscape"
   xmlns:sodipodi="http://sodipodi.sourceforge.net/DTD/sodipodi-0.dtd"
   xmlns="http://www.w3.org/2000/svg"
   xmlns:svg="http://www.w3.org/2000/svg"><defs
   id="defs14" /><sodipodi:namedview
   id="namedview14"
   pagecolor="#ffffff"
   bordercolor="#000000"
   borderopacity="0.25"
   inkscape:showpageshadow="2"
   inkscape:pageopacity="0.0"
   inkscape:pagecheckerboard="0"
   inkscape:deskcolor="#d1d1d1"
   inkscape:zoom="0.40740741"
   inkscape:cx="473.72727"
   inkscape:cy="490.90909"
   inkscape:window-width="1366"
   inkscape:window-height="761"
   inkscape:window-x="0"
   inkscape:window-y="0"
   inkscape:window-maximized="1"
   inkscape:current-layer="Capa_1"
   showguides="true" />
<g
   id="g14"
   transform="matrix(1.0008602,0,0,1,-238.44619,-394.7)"
   style="fill:#027543;fill-opacity:1">
	<g
   id="g13"
   style="fill:#027543;fill-opacity:1">
		<path
   class="st0"
   d="m 660.4,682.4 c 133.8,-105.1 35.1,-283.8 -71.1,-283.8 -45.5,0 -95.7,-0.7 -161.9,-0.7 v 126.5 l 0.1,0.4 h 95.1 c 30.1,0 54.5,24.4 54.5,54.5 v 0 c 0,30.1 -24.4,54.5 -54.5,54.5 H 449.2 L 751.2,933 V 773.2 Z"
   id="path1"
   style="fill:#027543;fill-opacity:1" />
		<g
   id="g6"
   style="fill:#027543;fill-opacity:1">
			<path
   class="st0"
   d="m 405.1,890.9 h -117 v -50.6 c 0,-10.5 1.7,-19.5 5.1,-27.1 3.4,-7.6 8.3,-13.4 14.6,-17.5 6.3,-4.1 13.9,-6.2 22.6,-6.2 8.8,0 16.3,2.1 22.6,6.2 6.3,4.1 11.1,10 14.4,17.5 3.3,7.6 4.9,16.6 4.9,27.1 v 35.8 L 360.6,863.7 H 405 v 27.2 z m -41.4,-27.2 -12.9,12.4 v -34.2 c 0,-8.2 -1.8,-14.5 -5.3,-18.7 -3.6,-4.2 -8.6,-6.3 -15,-6.3 -6.5,0 -11.4,2.1 -15,6.3 -3.5,4.2 -5.3,10.5 -5.3,18.7 v 34.2 l -12.9,-12.4 z m 41.4,-47.3 -42.4,29.4 v -29.1 l 42.4,-29.4 z"
   id="path2"
   style="fill:#027543;fill-opacity:1" />
			<path
   class="st0"
   d="m 405.1,800.4 -117,-52 v -26.7 l 117,-52.5 v 28.4 l -103.3,42.9 v -10.9 l 103.3,42.9 z m -25,-26.3 -20.5,-6.8 v -60.5 l 20.5,-7 z"
   id="path3"
   style="fill:#027543;fill-opacity:1" />
			<path
   class="st0"
   d="m 405.1,674.1 h -117 V 621 c 0,-12.7 2.4,-23.9 7.3,-33.6 4.8,-9.7 11.6,-17.3 20.4,-22.7 8.7,-5.5 19,-8.2 30.8,-8.2 11.8,0 22.1,2.7 30.8,8.2 8.7,5.5 15.5,13 20.4,22.7 4.8,9.7 7.3,20.9 7.3,33.6 z m -22,-27.3 v -24.6 c 0,-7.8 -1.5,-14.6 -4.4,-20.3 -3,-5.7 -7.2,-10.2 -12.7,-13.4 -5.5,-3.2 -11.9,-4.8 -19.3,-4.8 -7.5,0 -13.9,1.6 -19.4,4.8 -5.5,3.2 -9.7,7.6 -12.6,13.4 -3,5.7 -4.4,12.5 -4.4,20.3 v 24.6 z"
   id="path4"
   style="fill:#027543;fill-opacity:1" />
			<path
   class="st0"
   d="m 405.1,553.1 h -117 v -27.2 h 117 z"
   id="path5"
   style="fill:#027543;fill-opacity:1" />
			<path
   class="st0"
   d="m 407.1,458.5 c 0,9.2 -1.5,17.8 -4.5,25.6 -3,7.8 -7.2,14.6 -12.7,20.4 -5.5,5.8 -11.9,10.3 -19.2,13.4 -7.4,3.2 -15.4,4.8 -24.1,4.8 -8.8,0 -16.8,-1.6 -24.1,-4.8 -7.3,-3.2 -13.7,-7.7 -19.1,-13.4 -5.5,-5.8 -9.7,-12.6 -12.7,-20.3 -3,-7.7 -4.5,-16.2 -4.5,-25.5 0,-9.2 1.5,-17.7 4.4,-25.5 3,-7.7 7.2,-14.5 12.6,-20.3 5.5,-5.8 11.9,-10.3 19.2,-13.4 7.4,-3.2 15.4,-4.8 24.2,-4.8 8.7,0 16.7,1.6 24.1,4.8 7.4,3.2 13.8,7.7 19.3,13.4 5.5,5.8 9.7,12.6 12.6,20.3 3.1,7.8 4.5,16.2 4.5,25.3 z m -22.8,0.2 c 0,-5.2 -0.9,-10.1 -2.8,-14.5 -1.8,-4.4 -4.5,-8.3 -7.9,-11.6 -3.4,-3.3 -7.4,-5.9 -11.9,-7.8 -4.5,-1.8 -9.5,-2.8 -15.1,-2.8 -5.6,0 -10.6,0.9 -15.1,2.8 -4.5,1.8 -8.5,4.4 -11.9,7.8 -3.4,3.3 -6,7.2 -7.9,11.6 -1.8,4.4 -2.8,9.2 -2.8,14.5 0,5.2 0.9,10.1 2.8,14.5 1.8,4.5 4.5,8.3 7.9,11.6 3.4,3.3 7.4,5.8 11.9,7.7 4.5,1.8 9.6,2.8 15.1,2.8 5.6,0 10.6,-0.9 15.1,-2.8 4.5,-1.8 8.5,-4.4 11.9,-7.7 3.4,-3.3 6,-7.2 7.9,-11.6 1.8,-4.4 2.8,-9.2 2.8,-14.5 z"
   id="path6"
   style="fill:#027543;fill-opacity:1" />
		</g>
		<g
   id="g12"
   style="fill:#027543;fill-opacity:1">
			<path
   class="st0"
   d="m 320.9,932.1 c 0,4.8 -1,8.2 -3,10.3 -2,2.1 -4.7,3.2 -8.3,3.2 -3.5,0 -6.2,-1.1 -8.2,-3.2 -2,-2.1 -3,-5.6 -3,-10.3 v -27.9 h -11.7 v 28.2 c 0,7.4 2,13.2 6,17.1 4,3.9 9.6,6 16.8,6 7.1,0 12.7,-2 16.7,-6 4,-4 6,-9.7 6,-17.1 v -28.2 h -11.4 v 27.9 z"
   id="path7"
   style="fill:#027543;fill-opacity:1" />
			<path
   class="st0"
   d="m 407.7,904.3 -19.9,44.8 -20.1,-44.8 h -11.5 l -22.4,50.4 h 12 l 4.5,-10.8 h 23.3 l 4.5,10.8 h 7.3 5 7 l 4.5,-10.8 h 23.3 l 4.5,10.8 h 12.2 l -22.6,-50.4 z m -53.8,30.7 8,-19.2 8,19.2 z m 51.5,0 8,-19.2 8,19.2 z"
   id="path8"
   style="fill:#027543;fill-opacity:1" />
			<path
   class="st0"
   d="m 486.9,906.3 c -3.4,-1.9 -7.4,-2.8 -12.1,-2.8 -3.5,0 -6.7,0.7 -9.6,2.1 -2.9,1.4 -5.2,3.3 -6.9,5.8 -1.7,2.5 -2.6,5.5 -2.6,8.9 0,3.2 0.8,5.9 2.3,8.3 1.6,2.4 3.6,4.2 6.3,5.5 2.6,1.3 5.5,1.9 8.7,1.9 2.4,0 4.7,-0.3 6.6,-1 2,-0.6 3.7,-1.6 5.2,-2.9 0.2,-0.2 0.5,-0.4 0.7,-0.7 -0.2,4.6 -1.4,8.2 -3.8,10.7 -2.6,2.7 -6,4 -10.3,4 -1.7,0 -3.4,-0.2 -5,-0.5 -1.6,-0.4 -3.1,-1 -4.5,-2 l -4.2,8.6 c 1.8,1.1 3.9,2 6.3,2.6 2.4,0.6 5,0.9 7.6,0.9 5.1,0 9.6,-1.1 13.4,-3.2 3.8,-2.1 6.9,-5.2 9,-9.2 2.2,-4 3.3,-9 3.3,-14.8 0,-5.4 -0.9,-9.9 -2.7,-13.6 -1.8,-3.9 -4.4,-6.8 -7.7,-8.6 z m -3.7,17.2 c -0.7,1.1 -1.7,2 -3,2.7 -1.3,0.7 -2.8,1 -4.5,1 -2.6,0 -4.7,-0.7 -6.2,-2.1 -1.6,-1.4 -2.3,-3.2 -2.3,-5.5 0,-1.5 0.3,-2.9 1,-4 0.7,-1.1 1.7,-2 3,-2.6 1.3,-0.6 2.7,-0.9 4.4,-0.9 1.9,0 3.5,0.3 4.8,1 1.3,0.6 2.3,1.5 3,2.7 0.7,1.1 1,2.4 1,3.8 -0.1,1.4 -0.5,2.7 -1.2,3.9 z"
   id="path9"
   style="fill:#027543;fill-opacity:1" />
			<path
   class="st0"
   d="m 537.3,934.6 v -30.3 h -2.5 -8.5 -3.7 l -23.8,32 v 7.8 h 27.1 v 10.6 h 11.4 v -10.6 h 8.2 v -9.5 z m -24.5,0 13.5,-18.6 v 18.6 z"
   id="path10"
   style="fill:#027543;fill-opacity:1" />
			<path
   class="st0"
   d="m 589.9,925.3 c -3,-1.3 -7,-2 -12,-2 h -4.2 l 0.9,-9.6 h 21.1 v -9.4 h -30.8 l -2.5,28.4 h 12.8 c 3.1,0 5.5,0.3 7.2,0.8 1.7,0.6 2.9,1.3 3.6,2.3 0.7,1 1,2.1 1,3.5 0,2.1 -0.9,3.7 -2.6,4.9 -1.7,1.2 -4,1.8 -6.9,1.8 -2.6,0 -5.2,-0.4 -7.7,-1.3 -2.5,-0.8 -4.7,-2 -6.6,-3.3 l -4.3,8.2 c 0.1,-0.4 0.1,-0.7 0.1,-1.1 0,-2.1 -0.7,-3.8 -2,-5.1 -1.3,-1.3 -3,-1.9 -5,-1.9 -1.9,0 -3.6,0.6 -4.9,1.9 -1.3,1.3 -2.1,3 -2.1,5.1 0,2 0.7,3.7 2.1,5 1.4,1.3 3,2 4.9,2 2,0 3.6,-0.7 5,-2 0.9,-0.9 1.5,-1.9 1.8,-3.1 2.4,1.7 5.3,3 8.6,3.9 3.4,0.9 6.9,1.4 10.4,1.4 4.8,0 8.7,-0.8 11.8,-2.3 3.1,-1.5 5.4,-3.6 6.9,-6.1 1.5,-2.5 2.2,-5.3 2.2,-8.2 0,-3 -0.7,-5.7 -2.1,-8 -1.4,-2.6 -3.7,-4.5 -6.7,-5.8 z"
   id="path11"
   style="fill:#027543;fill-opacity:1" />
			<polygon
   class="st0"
   points="631.5,927 631.5,913.6 657.9,913.6 657.9,904.3 619.8,904.3 619.8,954.7 631.5,954.7 631.5,936.3 654.8,936.3 654.8,927 "
   id="polygon11"
   style="fill:#027543;fill-opacity:1" />
			<polygon
   class="st0"
   points="707.9,924.6 708.1,954.7 718.9,954.7 718.9,904.3 709.2,904.3 690.7,935.6 671.9,904.3 662.2,904.3 662.2,954.7 673.1,954.7 673.1,924.9 687.9,949.3 693.1,949.3 "
   id="polygon12"
   style="fill:#027543;fill-opacity:1" />
		</g>
	</g>
</g>
</svg>
