<?xml version="1.0" encoding="UTF-8"?>
<svg version="1.1" viewBox="0 0 2048 696" width="300" height="102" xmlns="http://www.w3.org/2000/svg">
<path transform="translate(28,356)" d="m0 0h113l37 1 21 2 24 5 19 7 21 11 10 8 6 5 8 10 10 16 8 16 7 24 4 26 1 10v44l-4 30-6 23-5 13-6 11-10 14-12 13-12 9-16 8-15 6-19 5-19 3-33 2h-142l-1-1-1-116v-165l1-39zm56 45v233l78-1 19-2 14-4 16-8 12-9 8-9 8-13 6-15 5-21 2-15 1-23-3-29-4-17-7-19-8-14-9-10-10-8-12-7-14-5-16-3-15-1z" fill="#C90940"/>
<path transform="translate(59,20)" d="m0 0h100l27 1 24 3 19 5 20 8 14 8 13 11 11 12 10 15 8 17 7 23 4 25 1 9v50l-4 27-4 17-6 16-9 17-8 11-9 10-9 8-15 9-21 9-23 6-20 3-20 1h-142l-10-1-1-14v-52l1-252 1-1zm25 45v231h81l16-2 17-5 16-9 11-9 8-9 8-16 7-21 3-15 2-23-1-22-3-23-6-21-8-17-8-11-9-9-14-9-15-6-12-3-10-1z" fill="#C90A40"/>
<path transform="translate(485,20)" d="m0 0h147l2 2-4 13-6 11-9 10-6 4-11 4-12 1-105 1-19 3-14 5-12 7-9 8-9 12-11 21-6 20-3 19-1 12v18l3 24 4 17 6 16 7 13 11 12 9 8 14 8 14 5 16 3 64 1 20 1v-99l-2 1h-72l-9-4-8-5-7-7-6-10-4-11 1-5h173l1 1v180l-1 1-170-1-22-3-19-5-16-6-16-9-11-8-10-9-8-10-10-17-8-20-5-18-3-18-1-8v-52l4-28 5-19 7-18 8-15 10-13 14-14 13-9 16-8 24-8 19-3z" fill="#FEC659"/>
<path transform="translate(397,356)" d="m0 0h21l1 4v273l87-1 13-2 14-5 12-7 10-10 7-12 4-14 1-10 1-181 4-10 9-12 9-8 7-4 11-1h22l2 1v225l-2 13-5 16-9 17-11 14-11 11-14 10-14 7-16 5-13 2-17 1h-164l-2-6v-278l2-9 8-13 8-8 12-6z" fill="#1A284D"/>
<path transform="translate(59,20)" d="m0 0h100l27 1 24 3 16 4 1 2-7 12-7 10-10 16-4 5-10-3-12-3-10-1-83-1v205l-4 2-7 10-14 23-8 13-12 23h-12l-10-1-1-14v-52l1-252 1-1z" fill="#1A284D"/>
<path transform="translate(485,20)" d="m0 0h147l2 2-4 13-6 11-9 10-6 4-11 4-12 1-105 1-19 3-14 5-12 7-9 8-9 12-11 21-6 20-3 19-1 12v18l3 24 4 17 2 6-1 5-11 17-16 26-7 11-4 3-8-10-10-17-8-20-5-18-3-18-1-8v-52l4-28 5-19 7-18 8-15 10-13 14-14 13-9 16-8 24-8 19-3z" fill="#C90940"/>
<path transform="translate(397,356)" d="m0 0h21l1 4v273h40l-6 11-11 19-6 10-2 5h-78l-2-6v-278l2-9 8-13 8-8 12-6z" fill="#FEC659"/>
<path transform="translate(297,423)" d="m0 0 3 3 7 17 6 23 4 31v44l-4 30-6 23-5 13-6 11-10 14-12 13-12 9-16 8-15 6-19 5-15 2v-50l16-8 11-9 6-7 8-13 6-15 5-21 2-15 1-23-2-24 4-1 7-10 8-14 12-19 10-16z" fill="#FEC659"/>
<path transform="translate(16,487)" d="m0 0 2 4 12 39 11 26 11 18 9 12 9 10 9 12 5 5v21l4-1 74-1 19-2 16-4v49l-15 2-22 1h-142l-1-1-1-116z" fill="#1A284D"/>
<path transform="translate(485,20)" d="m0 0h147l2 2-4 13-6 11-9 10-6 4-11 4-12 1-105 1-19 3-14 5-12 7-3 3h-2l-1-9 6-45 2-6 25-3z" fill="#1A284D"/>
<path transform="translate(397,156)" d="m0 0h1l-1 17v18l3 24 4 17 2 6-1 5-11 17-16 26-7 11-4 3-8-10-10-17-8-20-1-7 10-15 10-16 15-23 12-20z" fill="#1A284D"/>
<path transform="translate(675,331)" d="m0 0h54l9 2 8 6 6 7 4 8 1 5v32l-3 9-8 11-6 5-11 3-9 1h-45l-1-1-1-17v-24l1-46zm25 12-6 1 1 59 2 3h21l9-3 6-5 4-8 2-11v-11l-3-12-6-8-8-4-8-1z" fill="#1A284D"/>
<path transform="translate(675,215)" d="m0 0h51l11 2 10 6 6 8 4 9 2 13v17l-3 13-7 10-8 7-9 3-7 1-37 1-13-1-1-2v-86zm27 12-7 1v61l1 2h21l10-3 9-8 3-8 1-6v-16l-4-11-7-8-8-3-8-1z" fill="#1B294D"/>
<path transform="translate(800,215)" d="m0 0h60l8 3 7 8 3 8v12l-3 8-4 6-10 5 1 5 13 22 7 10v2h-14l-9-3-5-5-10-15-7-11-5-3-11-1-1 2-1 35-1 1-15-1-3-5-1-15v-67zm21 12-2 1-1 13v14l10-1 22-2 7-3 2-2 1-7-3-9-6-4z" fill="#1B294D"/>
<path transform="translate(1775,215)" d="m0 0h59l9 3 6 8 3 7v14l-3 9-8 7-5 2h-3l6 10 14 23 2 3v3l-7 1-14-3-7-7-12-19-4-6-5-3-13-1v37l-1 1h-13l-4-4-1-7v-74zm20 12-2 2-1 25 17-1 18-2 4-2 3-8-2-9-4-4-3-1z" fill="#1A284D"/>
<path transform="translate(897,331)" d="m0 0h54l9 2 9 6 7 8 4 10 1 4 1 15-2 16-5 12-7 8-9 5-9 2-10 1h-42l-1-1zm26 12-7 2-1 5v16l1 39 1 1h24l9-3 6-5 4-8 2-10v-11l-2-10-4-8-8-6-8-2z" fill="#1C2A4F"/>
<path transform="translate(1292,447)" d="m0 0h51l8 3 7 6 7 11 1 4 1 13v49l-3 3h-60l-8-3-5-4-6-10-2-5v-12l4-10 8-8 7-2 22-1h22l-2-9-4-8-8-4-5-1-15-1h-19l-3-3v-6zm53 45-31 2-8 2-3 2-1 3v9l3 9 6 3h35l2-2v-28z" fill="#1A284D"/>
<path transform="translate(1237,193)" d="m0 0 4 1v12l-3 5-14 7 9-2 5-1 9 4 8 7 6 10 2 6 1 7v21l-3 12-6 10-9 8-12 4h-25l-10-3-9-6-6-9-4-12-1-7v-13l2-13 4-10 7-9 8-5 7-3 13-10 15-10zm-16 26m-15 1-2 4 3-1zm10 5-8 5-6 7-4 11-1 4v16l4 12 7 8 9 4h9l8-4 6-5 3-5 3-15v-10l-3-12-4-6-7-6-11-4z" fill="#1B294D"/>
<path transform="translate(1875,215)" d="m0 0h45l8 2 9 6 6 8 3 7 1 6 1 23v33l-3 3-4 1-29 1h-14l-14-1-8-3-8-9-4-11v-9l3-10 7-8 4-2 6-1h43l-3-13-3-6-6-3-5-1h-38l-1-9zm45 46-26 1-8 3-3 6 1 11 4 6 5 3 11 1h11l10-1 3-5v-24l-1-1z" fill="#1B294D"/>
<path transform="translate(1375,308)" d="m0 0 3 1v9l-2 7-9 6-5 3 10-3h3l9 3 9 8 5 8 2 7 1 11v15l-2 13-4 8-8 9-9 5-8 2h-22l-11-3-9-6-6-8-5-13-1-6v-17l3-14 6-10 7-7 11-4h2l2-5 10-7 13-8zm-30 28m7 5-8 5-7 10-2 8v20l3 12 7 8 7 3 8 1 8-2 8-6 4-6 2-7 1-8v-12l-4-13-6-7-10-5-3-1z" fill="#1B294D"/>
<path transform="translate(1442,215)" d="m0 0h53l-1 9-1 2-4 1-29 1-14 2-7 3-6 8-3 11v14l4 13 6 7 11 4h17l5-1 1-9v-14h-16l-9-2-3-4 1-6 46-1 2 1 1 17v21l-1 10-2 2-22 1h-13l-21-2-12-5-8-9-5-12-2-9v-19l5-16 6-8 7-6 8-3z" fill="#1A284D"/>
<path transform="translate(1556,425)" d="m0 0 4 1 2 6-3 8-6 5-10 5 10-2h9l8 5 7 8 4 8 2 8 1 9v12l-3 14-6 11-9 8-11 4-5 1h-16l-11-2-10-5-8-9-5-12-1-4v-26l5-15 9-10 5-4 7-3 12-9 17-11zm-29 21m-1 1-2 7v2h3l1-3-1-6zm15 4m-6 6-10 6-5 8-3 10v19l4 12 6 7 8 4 7 1 8-2 8-6 4-5 3-10 1-13-2-12-4-8-8-7-10-4z" fill="#1B294E"/>
<path transform="translate(260,383)" d="m0 0 5 1 8 6 6 5 8 10 10 16-1 4-8 11-11 18-13 21-8 13-3 3-3-1-4-18-6-18-8-16-3-4 1-6 8-13 9-16 9-12z" fill="#1A284D"/>
<path transform="translate(675,446)" d="m0 0 19 1 1 1 1 24 2 9 4 4 5 1 26 2 4 1v-42l16-1 3 1v56l-2 10-6 10-5 6-9 4-10 2-12 1h-19l-10-1-4-4-2-5 1-5h40l7-2 7-6 4-8 1-5h-34l-12-2-7-4-7-10-2-7-1-10v-20z" fill="#1B294E"/>
<path transform="translate(1118,447)" d="m0 0h9l8 2 2 1 1 52 2 13 1 4 9 2h26l1-17 1-57h9l8 2 1 1 1 21v63l-4 2h-48l-9-2-8-5-6-9-3-8-1-7z" fill="#1B284D"/>
<path transform="translate(829,447)" d="m0 0h11l1 76 24-1 9-3 3-5 1-6 1-44 1-14 4-2 6-1h9v56l-2 15-6 9-8 6-7 2-10 1h-43l-1-1-1-11v-61l1-13 2-2z" fill="#1C2A4F"/>
<path transform="translate(1283,214)" d="m0 0h23l25 1 8 3 8 7 5 8 2 10v61l-1 1-10-1-6-3-2-4-1-55-3-9-4-3-12-2h-20l-1 75-1 1-11-1-6-3-1-7v-78z" fill="#1A284D"/>
<path transform="translate(945,446)" d="m0 0h32l24 1 8 3 7 7 5 10 1 6 1 61-1 2h-9l-8-2-2-8-1-54-3-7-6-4-6-1h-24v75h-16l-3-7-1-43v-23l1-15z" fill="#1B294E"/>
<path transform="translate(1604,446)" d="m0 0h15l32 1 8 3 8 7 4 7 1 4 1 46v22l-4 1-9-2-5-3-2-10-1-53-2-6-7-2-29-2v76l-3 2-10-2-5-5-1-11v-72z" fill="#1B294E"/>
<path transform="translate(1116,331)" d="m0 0h11l1 59 3 9 4 4 9 2h22l1-8 1-64 9-2h9l1 2v86l-1 1h-48l-12-2-8-5-6-8-2-6-1-10v-42l2-15z" fill="#1B294E"/>
<path transform="translate(1600,214)" d="m0 0h17l32 1 9 2 9 7 5 7 2 12 1 59-2 2h-8l-7-3-2-3-1-5-1-17-1-38-3-6-6-3-7-1h-20l-1 1v72l-1 3h-13l-4-4-1-5v-79z" fill="#1C2A4E"/>
<path transform="translate(1414,330)" d="m0 0h21l35 1 8 3 7 6 6 10 1 4v66h-7l-10-3-2-2-1-59-4-8-7-3-8-1h-20v75l-3 1-12-2-4-5z" fill="#1A284D"/>
<path transform="translate(915,215)" d="m0 0h50l1 3-3 7-2 1-9 1-25 1-9 3-5 4-6 10-1 6 6-1 22-1h24l1 4-1 8-6 2-18 1h-29l6 16 6 7 6 3h40l2 3v7l-4 3-3 1h-40l-12-3-7-5-7-10-4-10-1-5v-19l3-15 4-8 8-9 8-4z" fill="#1B294E"/>
<path transform="translate(1575,214)" d="m0 0h8l2 1-2 9-2 2-31 2-10 2-6 4-6 9-3 8 5-1 19-1h29v10l-3 3-3 1-25 1h-21l3 13 6 9 8 4 22 1 19-1 1 5-3 6-7 3h-35l-14-3-8-6-6-8-4-10-1-7v-24l4-13 6-8 8-7 6-2 9-1z" fill="#1B294E"/>
<path transform="translate(1754,214)" d="m0 0h7l1 1v7l-2 4-32 2-9 2-6 3-7 9-3 9 7-1 17-1h30v11l-5 3-48 1 4 13 6 9 7 4 20 1h21v10l-2 2-6 1h-39l-9-2-9-6-7-10-4-13v-28l4-13 6-8 7-6 7-2 11-1z" fill="#1B294D"/>
<path transform="translate(463,21)" d="m0 0h21l20 20 8 7 7 7 6 7v2l2 1-46 1-19 3-14 5-12 7-3 3h-2l-1-9 6-45 2-6z" fill="#1B284D"/>
<path transform="translate(1212,331)" d="m0 0h56l-1 7-2 4-4 1-34 1-10 1v13l1 6 25 1 13 2 9 5 6 7 3 10v8l-4 10-6 8-8 4-8 1h-50l-1-1 1-9 2-3 46-2 6-4 2-11-3-7-4-3-4-1-29-1-9-3-5-6-3-8v-15l6-9 5-5z" fill="#1A284D"/>
<path transform="translate(804,331)" d="m0 0h41l-1 7-3 4-6 1-25 1-10 2-5 3-6 9-3 9 4-1 17-1h30l2 4v6l-2 2-5 1-45 1 2 10 5 10 6 5 6 2h36l2 1v7l-2 4-4 2-22 1-16-1-12-3-8-6-7-9-4-10-2-14 1-15 4-14 6-8 8-7 5-2z" fill="#1B294D"/>
<path transform="translate(1430,446)" d="m0 0h16l13 1-2 9-5 3-26 1-11 2-8 4-6 12-1 4v18l4 11 7 8 8 3 10 1h11l18-1-1 8-5 5-4 1h-31l-16-3-9-6-8-11-3-9-1-5v-23l3-11 4-8 5-6 8-5 9-2z" fill="#1B294E"/>
<path transform="translate(1e3 215)" d="m0 0h49l1 3-3 6-4 3-27 1-14 3-6 5-5 12-1 6v12l3 10 5 9 7 4 6 1h36l2 1v6l-3 5-7 2h-36l-10-2-8-4-7-8-5-10-2-8-1-15 2-14 5-12 6-8 8-6z" fill="#1B294D"/>
<path transform="translate(1095,330)" d="m0 0 6 1-1 8-3 4-29 1-12 2-7 6-5 7-3 8 2-1 18-1h33l1 1v9l-1 2-6 1-45 1v40h-15l-3-2-1-4-1-13v-22l1-15 3-12 6-9 7-7 7-3 9-1z" fill="#1C294E"/>
<path transform="translate(1091,215)" d="m0 0h46l1 4-3 7-3 1-27 1-14 3-6 5-4 8-1 4v21l4 12 5 6 7 3h41l-1 9-4 4-3 1h-37l-14-3-8-7-6-9-3-9-1-5v-23l3-12 6-10 8-7 7-3z" fill="#1B294D"/>
<path transform="translate(1101,446)" d="m0 0 6 1-1 10-4 2-30 1-12 3-5 5-4 9-1 4v18l4 13 6 7 8 3 23 1 17-1-1 7-4 5-7 2h-30l-16-3-9-7-6-8-4-10-1-8v-17l2-12 4-9 7-8 5-4 6-2 8-1z" fill="#1B294E"/>
<path transform="translate(608,356)" d="m0 0h12l-3 11-6 16-9 19-14 24-12 18-7 9h-1v-62l4-10 9-12 9-8 7-4z" fill="#FEC65A"/>
<path transform="translate(1959,215)" d="m0 0 12 1 6 3 2 3 1 55 3 9 5 3 3 1 33 1 1 5-4 6-7 2h-33l-8-3-8-8-5-10-1-5-1-61z" fill="#1A284D"/>
<path transform="translate(1208,447)" d="m0 0 16 1 3 2 1 55 3 11 5 4 4 1h27l7-1 1 5-3 7-4 3-5 1h-30l-10-3-6-5-6-9-2-7-1-10z" fill="#1A284D"/>
<path transform="translate(1468,446)" d="m0 0 14 2 5 3 1 3v44l1 35-2 3h-12l-5-5-3-9v-75z" fill="#1B294E"/>
<path transform="translate(991,331)" d="m0 0h11l8 2 1 6 1 80-1 1-11-1-6-3-2-2-1-6z" fill="#1A284D"/>
<path transform="translate(912,447)" d="m0 0 17 1 1 3 1 16v68l-1 1h-8l-7-3-3-3-1-4v-78z" fill="#1B294D"/>
<path transform="translate(768,215)" d="m0 0 17 1 1 1 1 17v68l-2 2-10-1-5-2-2-9-1-13v-63z" fill="#1B294D"/>
<path transform="translate(1284,331)" d="m0 0h12l6 3 1 5v77l-2 4h-7l-8-4-2-6-1-78z" fill="#1A284D"/>
<path transform="translate(1151,214)" d="m0 0 8 1 7 3 2 2 1 4v79l-4 2-9-2-5-5-1-7v-76z" fill="#1A284D"/>
<path transform="translate(605,159)" d="m0 0h26l1 1v80h-1l-2-8-13-40-10-27z" fill="#1A284D"/>
<path transform="translate(481,21)" d="m0 0 4 1 19 19 8 7 7 7 6 7v2l2 1h-44l-1-32z" fill="#FEC65B"/>
<path transform="translate(106,633)" d="m0 0h40l1 1 3 17 3 13v8l-3 1-6-4-15-13-11-11-11-9z" fill="#C9083F"/>
<path transform="translate(17,357)" d="m0 0h14l-3 11-10 30h-1z" fill="#1A284D"/>
<path transform="translate(631,319)" d="m0 0h1v21h-6l4-18z" fill="#1A284D"/>
</svg>
