<svg style="width: 14px;" version="1.1" x="0px" y="0px" viewBox="0 0 2381.46 1224.21" xml:space="preserve" sodipodi:docname="uaa-logo.svg" width="2381.46" height="1224.21" inkscape:version="1.4 (e7c3feb100, 2024-10-09)"
   xmlns:inkscape="http://www.inkscape.org/namespaces/inkscape"
   xmlns:sodipodi="http://sodipodi.sourceforge.net/DTD/sodipodi-0.dtd"
   xmlns="http://www.w3.org/2000/svg"
   xmlns:svg="http://www.w3.org/2000/svg">
   <defs id="defs40" />
   <sodipodi:namedview id="namedview40" pagecolor="#ffffff" bordercolor="#000000" borderopacity="0.25" inkscape:showpageshadow="2" inkscape:pageopacity="0.0" inkscape:pagecheckerboard="0" inkscape:deskcolor="#d1d1d1" inkscape:zoom="0.23928571" inkscape:cx="1188.9552" inkscape:cy="610.14925" inkscape:window-width="1366" inkscape:window-height="761" inkscape:window-x="0" inkscape:window-y="0" inkscape:window-maximized="1" inkscape:current-layer="g40" />
   <g id="g40" transform="translate(-69.26,-7.9)">
      <g id="g4">
         <path class="st0" d="m 1289.78,96.73 c 0,-43.86 34.87,-78.71 78.73,-78.71 h 59.59 c 157.39,0 286.7,128.15 286.7,286.69 V 769.1 c -43.84,0 -78.68,-34.87 -78.68,-78.71 V 304.72 c 0,-114.69 -93.32,-207.99 -208.01,-207.99 z m -59.59,593.67 c 0,43.84 -35.96,78.71 -78.68,78.71 h -59.59 C 933.37,769.11 805.2,640.92 805.2,482.37 V 18.03 c 42.72,0 78.71,34.85 78.71,78.71 v 385.63 c 0,114.71 93.3,208.03 208.01,208.03 z" id="path1" />
         <path class="st1" d="m 1209.97,7.9 c -53.96,0 -98.96,43.84 -98.96,98.93 h 158.55 v -10.1 c 0,-39.36 22.48,-73.08 55.1,-88.83 z M 903.02,482.36 c 0,103.47 84.31,187.78 187.76,187.78 h 129.28 c -93.3,-38.23 -158.5,-130.42 -158.5,-237.25 V 106.84 c 0,-55.1 -44.99,-98.93 -98.96,-98.93 H 846.8 c 33.71,15.75 56.21,49.47 56.21,88.83 v 385.62 z m 712.82,-177.64 c 0,-103.43 -84.31,-188.9 -187.74,-188.9 h -129.3 c 93.32,39.34 158.52,131.55 158.52,238.36 v 326.08 c 0,55.07 44.99,98.93 98.95,98.93 h 114.69 c -32.6,-15.73 -55.12,-49.47 -55.12,-88.81 z M 1308.92,779.2 c 53.96,0 98.96,-43.86 98.96,-98.93 h -158.55 v 10.12 c 0,39.34 -22.5,73.08 -55.1,88.81 z" id="path2" />
         <path class="st2" d="m 1269.56,610.56 -41.59,-40.48 c -14.62,-14.62 -24.77,-34.87 -24.77,-57.37 0,-14.6 4.54,-28.08 11.26,-40.48 l 94.46,-159.64 c 8.99,-14.6 13.48,-32.58 13.48,-50.58 0,-4.52 0,-9.01 -1.11,-13.51 l 34.85,33.71 c 19.09,19.14 31.49,46.11 31.49,75.37 0,19.09 -4.49,37.09 -14.6,52.83 l -91.1,155.16 c -7.88,13.5 -12.37,29.23 -12.37,44.99" id="path3" />
         <path class="st3" d="m 1278.55,204.66 c 14.62,14.62 24.77,34.87 24.77,57.37 0,14.62 -4.52,28.1 -11.28,40.45 l -94.42,159.66 c -7.9,14.6 -13.51,31.49 -13.51,50.58 0,4.52 0,9.03 1.13,14.64 l -25.86,-25.86 c -18,-18 -28.13,-43.84 -28.13,-71.96 0,-19.11 4.49,-35.98 13.48,-51.71 l 91.08,-154.03 c 8.99,-14.62 14.62,-30.37 14.62,-48.38 z" id="path4" />
      </g>
      <g id="g39">
         <path class="st4" d="m 338.61,1102.7 h -56.4 v 129.4 h 56.4 c 46.47,0 64.15,-22.11 64.15,-64.16 0,-42.01 -17.68,-65.24 -64.15,-65.24 z m 0,111.71 h -29.85 v -94.02 h 29.85 c 29.85,0 38.69,23.25 38.69,47.55 0.01,24.34 -8.84,46.47 -38.69,46.47 z" id="path5" />
         <path class="st4" d="m 478.69,1119.44 h 30.11 c 10.04,0 17.86,-7.82 17.86,-16.73 H 478.7 c -47.97,0 -64.67,22.32 -64.67,64.69 0,42.41 16.71,64.71 64.67,64.71 h 30.11 c 10.04,0 17.86,-7.77 17.86,-16.73 h -47.96 c -28.98,0 -37.9,-21.19 -39.03,-43.51 h 60.22 c 10.07,0 17.86,-7.79 17.86,-17.84 h -56.88 c -7.81,0 -16.71,4.48 -21.19,12.27 -0.03,-24.57 8.89,-46.86 39,-46.86 z" id="path6" />
         <path class="st4" d="m 663.02,1102.7 h -43.16 c -8.84,0 -16.57,7.73 -16.57,16.57 h 50.86 c 21.01,0 34.27,17.69 34.27,35.4 h -55.29 c -22.13,0 -38.72,16.59 -38.72,38.7 0,21.04 16.59,38.72 38.72,38.72 h 81.81 v -77.43 c 0.02,-28.73 -22.06,-51.96 -51.92,-51.96 z m 25.41,111.71 h -46.44 c -13.26,0 -22.13,-11.08 -22.13,-21.04 0,-11.03 8.86,-22.11 22.13,-22.11 h 25.43 c 8.84,0 16.59,-4.42 21.01,-11.06 z" id="path7" />
         <path class="st4" d="m 793.36,1120.39 h 38.72 c 8.84,0 17.71,-7.75 17.71,-17.69 h -56.42 c -46.44,0 -64.15,23.23 -64.15,65.23 0,42.05 17.71,64.16 64.15,64.16 h 56.42 v -72.98 H 780.1 c 0,8.82 7.75,16.59 17.68,16.59 h 25.43 v 39.8 h -29.85 c -29.83,-1.09 -38.69,-23.23 -38.69,-47.57 -0.01,-24.29 8.85,-47.54 38.69,-47.54 z" id="path8" />
         <path class="st4" d="m 952.67,1119.27 v 95.14 H 918.4 c -14.38,0 -26.55,-12.19 -26.55,-25.46 v -86.25 h -7.73 c -9.96,0 -17.71,7.73 -17.71,16.57 v 69.68 c 0,23.23 18.8,43.15 43.12,43.15 h 68.59 v -129.4 h -8.84 c -8.86,0 -16.61,7.73 -16.61,16.57 z" id="path9" />
         <path class="st4" d="m 1060.82,1102.7 h -43.16 c -8.82,0 -16.57,7.73 -16.57,16.57 h 50.86 c 21.01,0 34.27,17.69 34.27,35.4 h -55.29 c -22.1,0 -38.69,16.59 -38.69,38.7 0,21.04 16.59,38.72 38.69,38.72 h 81.86 v -77.43 c 0,-28.73 -22.12,-51.96 -51.97,-51.96 z m 25.4,111.71 h -46.42 c -13.29,0 -22.15,-11.08 -22.15,-21.04 0,-11.03 8.86,-22.11 22.15,-22.11 h 25.41 c 8.86,0 16.59,-4.42 21.01,-11.06 z" id="path10" />
         <path class="st4" d="m 1308.4,1120.39 h 29.85 c 9.96,0 17.68,-7.75 17.68,-17.69 h -47.54 c -46.46,0 -64.13,23.23 -64.13,65.23 0,42.05 17.66,64.16 64.13,64.16 h 29.85 c 9.96,0 17.68,-7.71 17.68,-16.59 h -47.54 c -29.85,0 -38.69,-23.23 -38.69,-47.57 0.01,-24.29 8.86,-47.54 38.71,-47.54 z" id="path11" />
         <path class="st4" d="m 1612.51,1102.7 h -8.84 v 111.71 c 0,8.87 7.75,17.69 17.71,17.69 h 7.75 v -112.82 c -0.01,-8.85 -7.75,-16.58 -16.62,-16.58 z" id="path12" />
         <path class="st4" d="m 1841.36,1102.7 h -68.57 v 111.71 c 0,9.98 7.75,17.69 16.59,17.69 h 8.84 v -111.71 h 34.3 c 14.38,0 26.55,9.96 26.55,25.44 v 68.58 c 0,9.98 7.73,17.69 16.57,17.69 h 8.84 v -86.27 c -0.01,-23.23 -19.88,-43.13 -43.12,-43.13 z" id="path13" />
         <path class="st4" d="m 1707.94,1119.44 h 30.11 c 10.02,0 17.84,-7.82 17.84,-16.73 h -47.94 c -47.97,0 -64.7,22.32 -64.7,64.69 0,42.41 16.73,64.71 64.7,64.71 h 30.11 c 10.02,0 17.84,-7.77 17.84,-16.73 h -47.94 c -29,0 -37.94,-21.19 -39.05,-43.51 h 60.24 c 10.04,0 17.83,-7.79 17.83,-17.84 h -56.86 c -7.84,0 -16.75,4.48 -21.21,12.27 -0.02,-24.57 8.92,-46.86 39.03,-46.86 z" id="path14" />
         <path class="st4" d="m 2070.2,1119.44 h 30.15 c 10.02,0 17.81,-7.82 17.81,-16.73 h -47.96 c -47.97,0 -64.7,22.32 -64.7,64.69 0,42.41 16.73,64.71 64.7,64.71 h 30.15 c 10.02,0 17.81,-7.77 17.81,-16.73 h -47.96 c -28.98,0 -37.92,-21.19 -39.05,-43.51 h 60.24 c 10.04,0 17.83,-7.79 17.83,-17.84 h -56.86 c -7.81,0 -16.75,4.48 -21.21,12.27 0,-24.57 8.94,-46.86 39.05,-46.86 z" id="path15" />
         <path class="st4" d="m 1892.94,1119.44 h 43.51 v 95.93 c 0,8.96 6.69,16.73 16.71,16.73 h 8.94 v -112.66 h 25.65 c 10.02,0 17.86,-7.82 17.86,-16.73 h -95.93 c -8.92,-0.01 -16.74,7.81 -16.74,16.73 z" id="path16" />
         <path class="st4" d="m 2202.27,1154.67 h -29.87 c -8.82,0 -16.59,-7.75 -16.59,-17.71 0,-9.94 7.77,-16.57 16.59,-16.57 h 43.14 c 9.96,0 16.59,-8.84 16.59,-17.69 h -68.55 c -18.82,0 -34.3,14.36 -34.3,34.26 0,19.92 15.47,34.3 34.3,34.3 0,0 18.78,0 30.95,0 11.05,0 21.01,9.96 21.01,22.11 0,11.08 -9.96,21.04 -21.01,21.04 h -47.54 c -9.96,0 -17.71,7.73 -17.71,17.69 h 72.99 c 22.13,0 38.72,-17.69 38.72,-38.72 0,-21.02 -16.59,-38.71 -38.72,-38.71 z" id="path17" />
         <path class="st4" d="m 1522.41,1188.95 v -68.56 c 0,-9.96 -7.75,-17.69 -17.71,-17.69 h -8.84 v 86.25 c 0,23.23 19.89,43.15 43.12,43.15 h 34.32 c 9.92,0 17.66,-7.71 17.66,-17.69 h -43.14 c -14.35,0 -25.41,-11.08 -25.41,-25.46 z" id="path18" />
         <path class="st4" d="m 1426.94,1102.7 h -43.14 c -8.84,0 -16.57,7.73 -16.57,16.57 h 50.86 c 21.01,0 34.27,17.69 34.27,35.4 h -55.29 c -22.13,0 -38.69,16.59 -38.69,38.7 0,21.04 16.57,38.72 38.69,38.72 h 81.83 v -77.43 c 0.02,-28.73 -22.09,-51.96 -51.96,-51.96 z m 4.42,68.56 c 8.86,0 16.59,-4.42 21.01,-11.06 v 54.2 h -46.44 c -13.26,0 -22.13,-11.08 -22.13,-21.04 0,-11.03 8.86,-22.11 22.13,-22.11 h 25.43 z" id="path19" />
         <path class="st4" d="m 1197.1,1154.67 h -29.87 c -8.82,0 -16.59,-7.75 -16.59,-17.71 0,-9.94 7.77,-16.57 16.59,-16.57 h 43.12 c 9.98,0 16.61,-8.84 16.61,-17.69 h -68.55 c -18.82,0 -34.32,14.36 -34.32,34.26 0,19.92 15.5,34.3 34.32,34.3 0,0 18.78,0 30.95,0 11.05,0 20.99,9.96 20.99,22.11 0,11.08 -9.94,21.04 -20.99,21.04 h -47.56 c -9.94,0 -17.71,7.73 -17.71,17.69 h 73.01 c 22.11,0 38.69,-17.69 38.69,-38.72 0.01,-21.02 -16.58,-38.71 -38.69,-38.71 z" id="path20" />
         <path class="st4" d="m 155.51,925.21 v 95.11 h -34.27 c -14.38,0 -26.55,-12.17 -26.55,-25.44 v -86.27 h -7.75 c -9.96,0 -17.68,7.73 -17.68,16.59 v 69.68 c 0,23.25 18.82,43.15 43.14,43.15 h 68.55 V 908.62 h -8.84 c -8.85,0 -16.6,7.72 -16.6,16.59 z" id="path21" />
         <path class="st4" d="m 303.6,1038.04 h 8.82 v -86.29 c 0,-23.23 -19.89,-43.12 -43.12,-43.12 h -68.57 v 111.71 c 0,9.96 7.75,17.71 16.59,17.71 h 8.84 V 926.33 h 34.3 c 14.36,0 26.53,9.94 26.53,25.41 v 68.58 c 0,9.97 7.74,17.72 16.61,17.72 z" id="path22" />
         <path class="st4" d="m 349.91,1038.04 h 7.73 V 925.21 c 0,-8.87 -7.73,-16.59 -16.59,-16.59 h -8.84 v 111.71 c -0.01,8.84 7.74,17.71 17.7,17.71 z" id="path23" />
         <path class="st4" d="m 489.11,994.89 v -86.27 h -8.82 c -8.86,0 -16.59,7.73 -16.59,17.71 v 68.56 c 0,14.38 -12.17,25.44 -26.55,25.44 h -34.3 V 908.62 h -8.84 c -8.84,0 -16.59,7.73 -16.59,17.71 v 111.71 h 68.59 c 23.2,0 43.1,-19.9 43.1,-43.15 z" id="path24" />
         <path class="st4" d="m 614.48,1021.3 h -47.97 c -28.96,0 -37.92,-21.2 -39.03,-43.52 h 60.24 c 10.02,0 17.86,-7.82 17.86,-17.86 h -56.91 c -7.79,0 -16.71,4.48 -21.19,12.28 0,-24.53 8.94,-46.83 39.03,-46.83 h 30.13 c 10.04,0 17.84,-7.84 17.84,-16.78 h -47.97 c -47.95,0 -64.68,22.37 -64.68,64.73 0,42.39 16.73,64.71 64.68,64.71 h 30.13 c 10.04,0.01 17.84,-7.81 17.84,-16.73 z" id="path25" />
         <path class="st4" d="m 710.06,981.14 c 17.84,-2.25 31.24,-16.73 31.24,-35.72 0,-21.17 -16.73,-36.83 -36.8,-36.83 h -75.87 v 112.71 c 0,10.02 7.81,16.73 17.86,16.73 h 7.81 v -55.77 h 25.65 l 27.88,43.47 c 4.44,8.94 14.48,12.3 23.42,12.3 h 14.5 z m -14.5,-16.73 H 676.6 c -8.94,0 -16.71,4.46 -22.3,12.28 v -51.31 h 41.26 c 11.15,0 20.09,8.9 20.09,20.05 0,11.16 -8.94,18.98 -20.09,18.98 z" id="path26" />
         <path class="st4" d="M 827.06,960.59 H 797.2 c -8.86,0 -16.63,-7.73 -16.63,-17.69 0,-9.94 7.77,-16.57 16.63,-16.57 h 43.09 c 9.96,0 16.61,-8.87 16.61,-17.71 h -68.57 c -18.82,1.07 -34.27,14.38 -34.27,34.28 0,19.92 15.45,34.3 34.27,34.3 0,0 18.8,0 30.95,0 11.07,0 21.01,9.94 21.01,22.11 0,11.05 -9.94,21.02 -21.01,21.02 h -47.54 c -9.94,0 -17.68,7.75 -17.68,17.71 h 72.99 c 22.1,0 38.72,-17.71 38.72,-38.72 0,-21.01 -16.61,-38.73 -38.71,-38.73 z" id="path27" />
         <path class="st4" d="m 1043.82,973.87 c 0,-42.01 -17.71,-65.26 -64.17,-65.26 h -56.38 v 129.42 h 56.38 c 46.46,0.01 64.17,-22.13 64.17,-64.16 z m -94.01,-47.54 h 29.83 c 29.87,0 38.72,23.2 38.72,47.55 0,24.34 -8.84,46.45 -38.72,46.45 h -29.83 z" id="path28" />
         <path class="st4" d="m 895.75,1038.04 h 7.73 V 925.21 c 0,-8.87 -7.73,-16.59 -16.59,-16.59 h -8.82 v 111.71 c 0,8.84 7.73,17.71 17.68,17.71 z" id="path29" />
         <path class="st4" d="m 1054.98,999.31 c 0,21.02 16.59,38.72 38.72,38.72 h 81.83 v -77.45 c 0,-28.72 -22.11,-51.97 -51.96,-51.97 h -43.16 c -8.84,0 -16.57,7.73 -16.57,16.59 h 50.86 c 21.01,0 34.3,17.69 34.3,35.37 h -55.31 c -22.12,0.02 -38.71,16.63 -38.71,38.74 z m 72.99,-22.11 c 8.86,0 16.61,-4.44 21.03,-11.1 v 54.22 h -46.44 c -13.29,0 -22.15,-11.05 -22.15,-21.02 0,-11.05 8.86,-22.11 22.15,-22.11 h 25.41 z" id="path30" />
         <path class="st4" d="m 1313.03,973.87 c 0,-42.01 -17.71,-65.26 -64.15,-65.26 h -56.4 v 129.42 h 56.4 c 46.44,0.01 64.15,-22.13 64.15,-64.16 z m -64.15,46.46 h -29.85 v -94 h 29.85 c 29.85,0 38.69,23.2 38.69,47.55 0,24.34 -8.84,46.45 -38.69,46.45 z" id="path31" />
         <path class="st4" d="m 1455,908.62 h -43.12 c -8.84,0 -16.59,7.73 -16.59,16.59 h 50.86 c 21.03,0 34.27,17.69 34.27,35.37 h -55.29 c -22.1,0 -38.7,16.61 -38.7,38.72 0,21.02 16.59,38.72 38.7,38.72 h 81.83 v -77.45 c 0.02,-28.7 -22.1,-51.95 -51.96,-51.95 z m 25.44,111.71 H 1434 c -13.26,0 -22.11,-11.05 -22.11,-21.02 0,-11.05 8.84,-22.11 22.11,-22.11 h 25.45 c 8.82,0 16.59,-4.44 20.99,-11.1 z" id="path32" />
         <path class="st4" d="m 1610.21,925.21 v 95.11 h -34.32 c -14.36,0 -26.51,-12.17 -26.51,-25.44 v -86.27 h -7.77 c -9.96,0 -17.68,7.73 -17.68,16.59 v 69.68 c 0,23.25 18.8,43.15 43.14,43.15 h 68.57 V 908.62 h -8.86 c -8.85,0 -16.57,7.73 -16.57,16.59 z" id="path33" />
         <path class="st4" d="m 1646.89,925.37 h 43.49 v 95.93 c 0,8.92 6.71,16.73 16.73,16.73 h 8.94 V 925.37 h 25.63 c 10.07,0 17.86,-7.84 17.86,-16.78 h -95.91 c -8.95,0 -16.74,7.84 -16.74,16.78 z" id="path34" />
         <path class="st4" d="m 1970.53,908.62 h -68.57 v 111.71 c 0,9.96 7.75,17.71 16.57,17.71 h 8.86 V 926.33 h 34.27 c 14.4,0 26.57,9.94 26.57,25.41 v 68.58 c 0,9.96 7.73,17.71 16.55,17.71 h 8.86 v -86.29 c 0.01,-23.22 -19.91,-43.12 -43.11,-43.12 z" id="path35" />
         <path class="st4" d="m 2091.92,905.84 c -46.44,0 -64.15,24.37 -64.15,67.47 0,44.26 17.71,67.49 64.15,67.49 46.42,0 64.13,-23.23 64.13,-67.49 -0.01,-43.11 -17.71,-67.47 -64.13,-67.47 z m 0,118.36 c -29.87,0 -38.72,-24.32 -38.72,-50.9 0,-25.42 8.84,-49.76 38.72,-49.76 29.85,0 38.7,24.34 38.7,49.76 -0.01,26.58 -8.85,50.9 -38.7,50.9 z" id="path36" />
         <path class="st4" d="m 2273.88,908.62 h -103.74 v 112.66 c 0,8.92 7.81,16.76 17.86,16.76 h 7.79 V 925.35 h 22.32 c 6.71,0 13.4,5.56 13.4,13.38 v 82.55 c 0,8.92 7.79,16.76 16.71,16.76 h 8.92 v -99.3 c 0,-6.67 -2.21,-11.15 -3.33,-13.38 h 12.27 c 14.5,0 25.67,12.25 25.67,26.76 v 69.17 c 0,8.92 7.77,16.76 17.81,16.76 h 7.81 v -85.92 c -0.01,-24.55 -18.95,-43.51 -43.49,-43.51 z" id="path37" />
         <path class="st4" d="m 2398.76,908.62 h -43.14 c -8.86,0 -16.59,7.73 -16.59,16.59 h 50.86 c 21.01,0 34.27,17.69 34.27,35.37 h -55.29 c -22.13,0 -38.72,16.61 -38.72,38.72 0,21.02 16.59,38.72 38.72,38.72 h 81.85 v -77.45 c 0.02,-28.7 -22.11,-51.95 -51.96,-51.95 z m 25.41,111.71 h -46.47 c -13.22,0 -22.08,-11.05 -22.08,-21.02 0,-11.05 8.86,-22.11 22.08,-22.11 h 25.45 c 8.84,0 16.61,-4.44 21.01,-11.1 v 54.23 z" id="path38" />
         <path class="st4" d="m 1852.14,893.68 -34.28,6.88 v -8.45 c 0,-5.12 3.68,-9.51 8.68,-10.52 l 34.24,-6.89 v 8.41 c 0.01,5.13 -3.61,9.56 -8.64,10.57 z m 35.69,79.61 c 0,44.27 -17.71,67.5 -64.14,67.5 -46.45,0 -64.16,-23.23 -64.16,-67.5 0,-43.11 17.71,-67.48 64.16,-67.48 46.43,0.01 64.14,24.37 64.14,67.48 z m -25.44,0 c 0,-25.42 -8.84,-49.77 -38.7,-49.77 -29.88,0 -38.72,24.35 -38.72,49.77 0,26.58 8.84,50.9 38.72,50.9 29.86,0.01 38.7,-24.32 38.7,-50.9 z" id="path39" />
      </g>
   </g>
</svg>
