<svg style="width: 14px;"
   style="width: 14px;"
   viewBox="0 0 640 512"
   version="1.1"
   id="svg1"
   sodipodi:docname="volume-medium.svg"
   inkscape:version="1.4 (e7c3feb100, 2024-10-09)"
   xmlns:inkscape="http://www.inkscape.org/namespaces/inkscape"
   xmlns:sodipodi="http://sodipodi.sourceforge.net/DTD/sodipodi-0.dtd"
   xmlns="http://www.w3.org/2000/svg"
   xmlns:svg="http://www.w3.org/2000/svg">
  <defs
     id="defs1" />
  <sodipodi:namedview
     id="namedview1"
     pagecolor="#ffffff"
     bordercolor="#000000"
     borderopacity="0.25"
     inkscape:showpageshadow="2"
     inkscape:pageopacity="0.0"
     inkscape:pagecheckerboard="0"
     inkscape:deskcolor="#d1d1d1"
     inkscape:zoom="1.0742188"
     inkscape:cx="320.23273"
     inkscape:cy="256"
     inkscape:window-width="1366"
     inkscape:window-height="761"
     inkscape:window-x="0"
     inkscape:window-y="0"
     inkscape:window-maximized="1"
     inkscape:current-layer="svg1" />
  <!--!Font Awesome Free 6.6.0 by @fontawesome - https://fontawesome.com License - https://fontawesome.com/license/free Copyright 2024 Fonticons, Inc.-->
  <path
     id="path1"
     d="m 287.64062,32.021484 c -7.58886,0.0791 -15.0664,2.828125 -20.9414,8.078125 L 131.80078,160 H 64 C 28.7,160 0,188.7 0,224 v 64 c 0,35.3 28.7,64 64,64 h 67.80078 l 134.89844,119.90039 c 9.4,8.4 22.90039,10.49883 34.40039,5.29883 C 312.59961,471.99922 320,460.6 320,448 V 64 c 0,-12.6 -7.40039,-23.999219 -18.90039,-29.199219 -4.3125,-1.9125 -8.90566,-2.826758 -13.45899,-2.779297 z m 172.42774,69.623046 c -7.69727,-0.68164 -15.58008,2.31836 -20.76758,8.75586 -8.3,10.3 -6.8,25.39883 3.5,33.79883 C 475.30078,170.69922 496,210.9 496,256 c 0,45.1 -20.69922,85.29922 -53.19922,111.69922 -10.3,8.4 -11.9,23.50078 -3.5,33.80078 8.4,10.3 23.49883,11.9 33.79883,3.5 C 516.29961,369.8 544,316.1 544,256 544,195.9 516.29961,142.2 473.09961,107 v -0.0996 c -3.8625,-3.1125 -8.41289,-4.84687 -13.03125,-5.25586 z m -60.5,74.5 c -7.69727,-0.68164 -15.58008,2.31836 -20.76758,8.75586 -8.3,10.3 -6.8,25.39883 3.5,33.79883 C 393.10078,227.59922 400,241 400,256 c 0,15 -6.89922,28.39922 -17.69922,37.19922 -10.3,8.4 -11.9,23.50078 -3.5,33.80078 8.4,10.3 23.49883,11.9 33.79883,3.5 C 434.09961,312.9 448,286.1 448,256 c 0,-30.1 -13.90039,-56.9 -35.40039,-74.5 v -0.0996 c -3.8625,-3.1125 -8.41289,-4.84687 -13.03125,-5.25586 z"
     sodipodi:nodetypes="sccssssccssscssscscscsccsssscscscsccss"
     style="color:#000000;font-style:normal;font-variant:normal;font-weight:normal;font-stretch:normal;font-size:medium;line-height:normal;font-family:sans-serif;font-variant-ligatures:normal;font-variant-position:normal;font-variant-caps:normal;font-variant-numeric:normal;font-variant-alternates:normal;font-variant-east-asian:normal;font-feature-settings:normal;font-variation-settings:normal;text-indent:0;text-align:start;text-decoration-line:none;text-decoration-style:solid;text-decoration-color:#000000;letter-spacing:normal;word-spacing:normal;text-transform:none;writing-mode:lr-tb;direction:ltr;text-orientation:mixed;dominant-baseline:auto;baseline-shift:baseline;text-anchor:start;white-space:normal;shape-padding:0;shape-margin:0;inline-size:0;clip-rule:nonzero;display:inline;overflow:visible;visibility:visible;isolation:auto;mix-blend-mode:normal;color-interpolation:sRGB;color-interpolation-filters:linearRGB;solid-color:#000000;solid-opacity:1;vector-effect:none;fill:#000000;fill-opacity:1;fill-rule:nonzero;stroke:none;stroke-linecap:butt;stroke-linejoin:miter;stroke-miterlimit:4;stroke-dasharray:none;stroke-dashoffset:0;stroke-opacity:1;-inkscape-stroke:none;color-rendering:auto;image-rendering:auto;shape-rendering:auto;text-rendering:auto;enable-background:accumulate;stop-color:#000000;stop-opacity:1" />
</svg>
